<svg x="0px" y="0px" viewBox="0 0 80 80">
<g transform="translate(-33 -8501)">
	<rect id="長方形_25" x="33" y="8501" fill="none" width="80" height="80"/>
  <path class="st1" d="M64.5,8536h18c0.8,0,1.5-0.7,1.5-1.5s-0.7-1.5-1.5-1.5h-18c-0.8,0-1.5,0.7-1.5,1.5S63.7,8536,64.5,8536z"/>
  <path class="st1" d="M82.5,8541h-18c-0.8,0-1.5,0.7-1.5,1.5s0.7,1.5,1.5,1.5h18c0.8,0,1.5-0.7,1.5-1.5S83.3,8541,82.5,8541z"/>
  <path class="st1" d="M82.5,8549h-18c-0.8,0-1.5,0.7-1.5,1.5s0.7,1.5,1.5,1.5h18c0.8,0,1.5-0.7,1.5-1.5S83.3,8549,82.5,8549z"/>
</g>
</svg>
