<?xml version="1.0" encoding="utf-8"?>
<!-- Generator: Adobe Illustrator 23.0.4, SVG Export Plug-In . SVG Version: 6.00 Build 0)  -->
<svg version="1.1" id="レイヤー_1" xmlns="http://www.w3.org/2000/svg" xmlns:xlink="http://www.w3.org/1999/xlink" x="0px"
	 y="0px" viewBox="0 0 80 80" style="enable-background:new 0 0 80 80;" xml:space="preserve">
<g transform="translate(-33 -8581)">
	<g>
		<path d="M64.5,8626c0.8,0,1.5-0.7,1.5-1.5v-6c0-0.8-0.7-1.5-1.5-1.5s-1.5,0.7-1.5,1.5v6 C63,8625.3,63.7,8626,64.5,8626z"/>
		<path  d="M76.5,8626c0.8,0,1.5-0.7,1.5-1.5v-5c0-0.8-0.7-1.5-1.5-1.5s-1.5,0.7-1.5,1.5v5 C75,8625.3,75.7,8626,76.5,8626z"/>
		<path  d="M70.5,8626c0.8,0,1.5-0.7,1.5-1.5v-9c0-0.8-0.7-1.5-1.5-1.5s-1.5,0.7-1.5,1.5v9 C69,8625.3,69.7,8626,70.5,8626z"/>
		<path  d="M82.5,8611c-0.8,0-1.5,0.7-1.5,1.5v12c0,0.8,0.7,1.5,1.5,1.5s1.5-0.7,1.5-1.5v-12 C84,8611.7,83.3,8611,82.5,8611z"/>
		<path  d="M82.5,8629h-18c-0.8,0-1.5,0.7-1.5,1.5s0.7,1.5,1.5,1.5h18c0.8,0,1.5-0.7,1.5-1.5S83.3,8629,82.5,8629z"/>
	</g>
</g>
</svg>
